<svg width="16" height="16" viewBox="0 0 1024 1024"><path d="M512 41.984q139.989333 0 240.981333 100.992t100.992 240.981333-100.992 240.981333-240.981333 100.992-240.981333-100.992-100.992-240.981333 100.992-240.981333 240.981333-100.992zM512 809.984q176 0 301.013333-125.013333t125.013333-301.013333-125.013333-301.013333-301.013333-125.013333-301.013333 125.013333-125.013333 301.013333 125.013333 301.013333 301.013333 125.013333zM512 598.016q88.021333 0 150.997333-63.018667t63.018667-150.997333-63.018667-150.997333-150.997333-63.018667-150.997333 63.018667-63.018667 150.997333 63.018667 150.997333 150.997333 63.018667z" fill="#828282"></path></path></svg>


